<svg width="42" height="42" viewBox="0 0 42 42" fill="none" xmlns="http://www.w3.org/2000/svg">
<g clip-path="url(#clip0)">
<path d="M31.6937 14.5105C30.9187 14.0535 29.9114 14.0535 29.0591 14.5105L23.0147 18.0147L18.9077 20.3L12.8635 23.8041C12.0885 24.2611 11.0812 24.2611 10.2288 23.8041L5.42435 21.0617C4.64944 20.6046 4.10701 19.7668 4.10701 18.8526V13.444C4.10701 12.5299 4.57196 11.692 5.42435 11.2349L10.1513 8.56871C10.9262 8.11164 11.9336 8.11164 12.786 8.56871L17.5129 11.2349C18.2878 11.692 18.8302 12.5299 18.8302 13.444V16.9482L22.9372 14.5867V11.0826C22.9372 10.1684 22.4724 9.33047 21.6199 8.87341L12.8635 3.84573C12.0885 3.38866 11.0812 3.38866 10.2288 3.84573L1.31734 8.87341C0.464944 9.33047 0 10.1684 0 11.0826V21.2141C0 22.1282 0.464944 22.9662 1.31734 23.4233L10.2288 28.4509C11.0037 28.908 12.0111 28.908 12.8635 28.4509L18.9077 25.0229L23.0147 22.6615L29.0591 19.2335C29.8339 18.7764 30.8413 18.7764 31.6937 19.2335L36.4206 21.8997C37.1955 22.3567 37.7379 23.1948 37.7379 24.1089V29.5173C37.7379 30.4316 37.2731 31.2695 36.4206 31.7265L31.6937 34.4689C30.9187 34.926 29.9114 34.926 29.0591 34.4689L24.3322 31.8027C23.5572 31.3457 23.0147 30.5077 23.0147 29.5936V26.0895L18.9077 28.4509V31.955C18.9077 32.8691 19.3727 33.7071 20.225 34.1642L29.1365 39.1919C29.9114 39.6489 30.9187 39.6489 31.7712 39.1919L40.6827 34.1642C41.4575 33.7071 42 32.8691 42 31.955V21.8235C42 20.9094 41.535 20.0715 40.6827 19.6145L31.6937 14.5105Z" fill="#0C0C0C"/>
</g>
<defs>
<clipPath id="clip0">
<rect width="42" height="42" fill="white"/>
</clipPath>
</defs>
</svg>
